<svg width="196" height="70" viewBox="0 0 196 70" fill="none" xmlns="http://www.w3.org/2000/svg">
<g clip-path="url(#clip0_58051_421)">
<path d="M9.4421 43H3.8981V13.684H17.0861C18.9061 13.684 20.4601 14.062 21.7481 14.818C23.0361 15.574 24.0301 16.638 24.7301 18.01C25.4301 19.354 25.7801 20.936 25.7801 22.756C25.7801 24.576 25.4301 26.172 24.7301 27.544C24.0301 28.888 23.0361 29.938 21.7481 30.694C20.4601 31.45 18.9061 31.828 17.0861 31.828H9.4421V43ZM9.4421 18.514V27.04H16.5821C17.3101 27.04 17.9261 26.914 18.4301 26.662C18.9341 26.382 19.3261 26.004 19.6061 25.528C19.8861 25.024 20.0261 24.422 20.0261 23.722V21.79C20.0261 21.062 19.8861 20.46 19.6061 19.984C19.3261 19.508 18.9341 19.144 18.4301 18.892C17.9261 18.64 17.3101 18.514 16.5821 18.514H9.4421ZM49.0041 43H46.0221C45.2101 43 44.4821 42.818 43.8381 42.454C43.2221 42.062 42.7321 41.502 42.3681 40.774C42.0321 40.046 41.8641 39.192 41.8641 38.212V37.75L43.2081 39.22H41.6961C41.3321 40.62 40.5761 41.684 39.4281 42.412C38.3081 43.14 36.9361 43.504 35.3121 43.504C33.0721 43.504 31.3501 42.916 30.1461 41.74C28.9421 40.536 28.3401 38.968 28.3401 37.036C28.3401 35.524 28.7041 34.278 29.4321 33.298C30.1881 32.318 31.2661 31.576 32.6661 31.072C34.0661 30.568 35.7461 30.316 37.7061 30.316H41.4441V28.72C41.4441 27.516 41.1221 26.578 40.4781 25.906C39.8341 25.206 38.7981 24.856 37.3701 24.856C36.1101 24.856 35.0881 25.136 34.3041 25.696C33.5481 26.228 32.9041 26.872 32.3721 27.628L29.1801 24.772C29.9921 23.512 31.0701 22.504 32.4141 21.748C33.7581 20.964 35.5361 20.572 37.7481 20.572C40.6881 20.572 42.9281 21.258 44.4681 22.63C46.0361 23.974 46.8201 25.892 46.8201 28.384V38.716H49.0041V43ZM41.4441 33.55H38.0001C36.6001 33.55 35.5501 33.788 34.8501 34.264C34.1501 34.712 33.8001 35.37 33.8001 36.238V36.952C33.8001 37.82 34.0941 38.478 34.6821 38.926C35.2701 39.374 36.0821 39.598 37.1181 39.598C37.9301 39.598 38.6581 39.486 39.3021 39.262C39.9461 39.01 40.4641 38.646 40.8561 38.17C41.2481 37.694 41.4441 37.12 41.4441 36.448V33.55ZM60.5371 43.504C58.4371 43.504 56.6731 43.154 55.2451 42.454C53.8171 41.726 52.5571 40.732 51.4651 39.472L54.7411 36.28C55.5531 37.204 56.4351 37.932 57.3871 38.464C58.3671 38.996 59.4871 39.262 60.7471 39.262C62.0351 39.262 62.9591 39.038 63.5191 38.59C64.1071 38.142 64.4011 37.526 64.4011 36.742C64.4011 36.098 64.1911 35.594 63.7711 35.23C63.3791 34.838 62.6931 34.572 61.7131 34.432L59.5291 34.138C57.9611 33.942 56.6311 33.578 55.5391 33.046C54.4471 32.514 53.6211 31.786 53.0611 30.862C52.5011 29.938 52.2211 28.818 52.2211 27.502C52.2211 25.374 52.9771 23.694 54.4891 22.462C56.0291 21.202 58.0451 20.572 60.5371 20.572C61.9651 20.572 63.1831 20.712 64.1911 20.992C65.2271 21.244 66.1371 21.636 66.9211 22.168C67.7051 22.672 68.4331 23.288 69.1051 24.016L65.9551 27.166C65.3111 26.494 64.5411 25.934 63.6451 25.486C62.7491 25.038 61.7691 24.814 60.7051 24.814C59.5851 24.814 58.7451 25.024 58.1851 25.444C57.6531 25.836 57.3871 26.382 57.3871 27.082C57.3871 27.81 57.5971 28.37 58.0171 28.762C58.4651 29.126 59.2071 29.392 60.2431 29.56L62.4691 29.854C64.8771 30.19 66.6551 30.904 67.8031 31.996C68.9791 33.06 69.5671 34.502 69.5671 36.322C69.5671 37.722 69.1891 38.968 68.4331 40.06C67.7051 41.152 66.6551 42.006 65.2831 42.622C63.9391 43.21 62.3571 43.504 60.5371 43.504ZM82.9661 43.504C79.7181 43.504 77.2121 42.468 75.4481 40.396C73.7121 38.324 72.8441 35.524 72.8441 31.996C72.8441 28.496 73.7121 25.724 75.4481 23.68C77.2121 21.608 79.7181 20.572 82.9661 20.572C85.1781 20.572 86.9981 21.062 88.4261 22.042C89.8821 23.022 90.9321 24.38 91.5761 26.116L87.1661 28.09C86.9141 27.166 86.4381 26.41 85.7381 25.822C85.0381 25.206 84.1141 24.898 82.9661 24.898C81.4821 24.898 80.3621 25.374 79.6061 26.326C78.8501 27.25 78.4721 28.496 78.4721 30.064V34.054C78.4721 35.566 78.8501 36.798 79.6061 37.75C80.3621 38.702 81.4821 39.178 82.9661 39.178C84.2261 39.178 85.2061 38.856 85.9061 38.212C86.6341 37.54 87.1941 36.714 87.5861 35.734L91.7021 37.708C91.0021 39.64 89.8961 41.096 88.3841 42.076C86.9001 43.028 85.0941 43.504 82.9661 43.504ZM114.957 43H111.975C111.163 43 110.435 42.818 109.791 42.454C109.175 42.062 108.685 41.502 108.321 40.774C107.985 40.046 107.817 39.192 107.817 38.212V37.75L109.161 39.22H107.649C107.285 40.62 106.529 41.684 105.381 42.412C104.261 43.14 102.889 43.504 101.265 43.504C99.0253 43.504 97.3033 42.916 96.0993 41.74C94.8953 40.536 94.2933 38.968 94.2933 37.036C94.2933 35.524 94.6573 34.278 95.3853 33.298C96.1413 32.318 97.2193 31.576 98.6193 31.072C100.019 30.568 101.699 30.316 103.659 30.316H107.397V28.72C107.397 27.516 107.075 26.578 106.431 25.906C105.787 25.206 104.751 24.856 103.323 24.856C102.063 24.856 101.041 25.136 100.257 25.696C99.5013 26.228 98.8573 26.872 98.3253 27.628L95.1333 24.772C95.9453 23.512 97.0233 22.504 98.3673 21.748C99.7113 20.964 101.489 20.572 103.701 20.572C106.641 20.572 108.881 21.258 110.421 22.63C111.989 23.974 112.773 25.892 112.773 28.384V38.716H114.957V43ZM107.397 33.55H103.953C102.553 33.55 101.503 33.788 100.803 34.264C100.103 34.712 99.7533 35.37 99.7533 36.238V36.952C99.7533 37.82 100.047 38.478 100.635 38.926C101.223 39.374 102.035 39.598 103.071 39.598C103.883 39.598 104.611 39.486 105.255 39.262C105.899 39.01 106.417 38.646 106.809 38.17C107.201 37.694 107.397 37.12 107.397 36.448V33.55ZM127.582 43H124.684C122.864 43 121.506 42.538 120.61 41.614C119.742 40.69 119.308 39.388 119.308 37.708V11.92H124.684V38.716H127.582V43Z" fill="white"/>
<path d="M136.345 43V21.1818H143.387C144.936 21.1818 146.228 21.4624 147.265 22.0234C148.309 22.5774 149.094 23.348 149.62 24.3352C150.152 25.3153 150.419 26.4411 150.419 27.7124C150.419 28.9837 150.152 30.1058 149.62 31.0788C149.094 32.0518 148.313 32.8118 147.276 33.3587C146.239 33.9055 144.953 34.179 143.419 34.179H137.421V32.3572H143.366C144.502 32.3572 145.447 32.169 146.2 31.7926C146.96 31.4162 147.524 30.88 147.894 30.1839C148.27 29.4879 148.458 28.6641 148.458 27.7124C148.458 26.7607 148.27 25.9297 147.894 25.2195C147.517 24.5021 146.949 23.9482 146.189 23.5575C145.436 23.1669 144.485 22.9716 143.334 22.9716H138.338V43H136.345ZM145.965 33.1562L151.335 43H149.034L143.718 33.1562H145.965ZM156.363 21.1818V43H154.371V21.1818H156.363ZM173.111 26.6364C172.99 25.4219 172.454 24.456 171.502 23.7386C170.55 23.0213 169.354 22.6626 167.912 22.6626C166.896 22.6626 166.001 22.8366 165.227 23.1847C164.46 23.5327 163.856 24.0156 163.416 24.6335C162.983 25.2443 162.766 25.9403 162.766 26.7216C162.766 27.2969 162.891 27.8011 163.139 28.2344C163.388 28.6676 163.722 29.0405 164.141 29.353C164.567 29.6584 165.035 29.9212 165.547 30.1413C166.065 30.3615 166.587 30.5462 167.113 30.6953L169.414 31.3558C170.11 31.5476 170.806 31.7926 171.502 32.0909C172.198 32.3892 172.834 32.7656 173.409 33.2202C173.991 33.6676 174.457 34.218 174.805 34.8714C175.16 35.5178 175.337 36.2955 175.337 37.2045C175.337 38.3693 175.035 39.4169 174.432 40.3473C173.828 41.2777 172.962 42.0163 171.832 42.5632C170.703 43.103 169.35 43.3729 167.773 43.3729C166.289 43.3729 165 43.1278 163.906 42.6378C162.812 42.1406 161.953 41.4553 161.328 40.5817C160.703 39.7081 160.351 38.696 160.273 37.5455H162.319C162.39 38.4048 162.674 39.1328 163.171 39.7294C163.668 40.326 164.315 40.7805 165.11 41.093C165.905 41.3984 166.793 41.5511 167.773 41.5511C168.86 41.5511 169.826 41.37 170.671 41.0078C171.523 40.6385 172.191 40.1271 172.674 39.4737C173.164 38.8132 173.409 38.0462 173.409 37.1726C173.409 36.4339 173.217 35.8161 172.834 35.3189C172.45 34.8146 171.914 34.392 171.225 34.0511C170.543 33.7102 169.751 33.4084 168.849 33.1456L166.239 32.3786C164.528 31.8672 163.2 31.1605 162.255 30.2585C161.31 29.3565 160.838 28.206 160.838 26.8068C160.838 25.6349 161.15 24.6051 161.775 23.7173C162.408 22.8224 163.26 22.1264 164.332 21.6293C165.412 21.125 166.623 20.8729 167.965 20.8729C169.322 20.8729 170.522 21.1214 171.566 21.6186C172.61 22.1158 173.437 22.8011 174.048 23.6747C174.666 24.5412 174.996 25.5284 175.039 26.6364H173.111ZM179.231 43V21.1818H181.224V32.9325H181.415L192.069 21.1818H194.689L185.368 31.2706L194.647 43H192.218L184.132 32.6555L181.224 35.9155V43H179.231Z" fill="white"/>
<path d="M19.5 60.2812H18V58.25C18 56.4552 16.209 55 14 55C11.791 55 10 56.4552 10 58.25V60.2812H8.5C8.224 60.2812 8 60.4633 8 60.6875V67.5938C8 67.818 8.224 68 8.5 68H19.5C19.776 68 20 67.818 20 67.5938V60.6875C20 60.4633 19.776 60.2812 19.5 60.2812ZM11 58.25C11 56.9061 12.346 55.8125 14 55.8125C15.654 55.8125 17 56.9061 17 58.25V60.6875H16V58.25C16 57.3538 15.103 56.625 14 56.625C12.897 56.625 12 57.3538 12 58.25V60.6875H11V58.25ZM15 58.25V60.2812H13V58.25C13 57.8011 13.4475 57.4375 14 57.4375C14.5525 57.4375 15 57.8011 15 58.25ZM19 67.1875H9V61.0938H19V67.1875ZM13 65.5625C13 65.7867 13.224 65.9688 13.5 65.9688H14.5C14.776 65.9688 15 65.7867 15 65.5625V64.4335C15.305 64.2105 15.5 63.8908 15.5 63.5312C15.5 62.8581 14.8285 62.3125 14 62.3125C13.1715 62.3125 12.5 62.8581 12.5 63.5312C12.5 63.8908 12.695 64.2105 13 64.4335V65.5625ZM14 62.7188C14.5515 62.7188 15 63.0832 15 63.5312C15 63.7608 14.881 63.9741 14.6655 64.1317L14.5 64.2527V65.5625H13.5V64.2527L13.3345 64.1317C13.119 63.9741 13 63.7608 13 63.5312C13 63.0832 13.4485 62.7188 14 62.7188Z" fill="#EE8600"/>
<path d="M24.8608 67V58.2727H28.1335C28.804 58.2727 29.3665 58.3977 29.821 58.6477C30.2784 58.8977 30.6236 59.2415 30.8565 59.679C31.0923 60.1136 31.2102 60.608 31.2102 61.1619C31.2102 61.7216 31.0923 62.2187 30.8565 62.6534C30.6207 63.0881 30.2727 63.4304 29.8125 63.6804C29.3523 63.9276 28.7855 64.0511 28.1122 64.0511H25.9432V62.7514H27.8991C28.2912 62.7514 28.6122 62.6832 28.8622 62.5469C29.1122 62.4105 29.2969 62.223 29.4162 61.9844C29.5384 61.7457 29.5994 61.4716 29.5994 61.1619C29.5994 60.8523 29.5384 60.5795 29.4162 60.3438C29.2969 60.108 29.1108 59.9247 28.858 59.794C28.608 59.6605 28.2855 59.5938 27.8906 59.5938H26.4418V67H24.8608ZM37.3263 60.6719C37.2866 60.2997 37.119 60.0099 36.8235 59.8026C36.5309 59.5952 36.1502 59.4915 35.6815 59.4915C35.3519 59.4915 35.0692 59.5412 34.8335 59.6406C34.5977 59.7401 34.4173 59.875 34.2923 60.0455C34.1673 60.2159 34.1033 60.4105 34.1005 60.6293C34.1005 60.8111 34.1417 60.9687 34.2241 61.1023C34.3093 61.2358 34.4244 61.3494 34.5692 61.4432C34.7141 61.5341 34.8746 61.6108 35.0508 61.6733C35.2269 61.7358 35.4045 61.7884 35.5835 61.831L36.4016 62.0355C36.7312 62.1122 37.0479 62.2159 37.3519 62.3466C37.6587 62.4773 37.9329 62.642 38.1744 62.8409C38.4187 63.0398 38.6119 63.2798 38.7539 63.5611C38.896 63.8423 38.967 64.1719 38.967 64.5497C38.967 65.0611 38.8363 65.5114 38.5749 65.9006C38.3136 66.2869 37.9357 66.5895 37.4414 66.8082C36.9499 67.0241 36.3548 67.1321 35.6559 67.1321C34.9769 67.1321 34.3874 67.027 33.8874 66.8168C33.3903 66.6065 33.0011 66.2997 32.7198 65.8963C32.4414 65.4929 32.2908 65.0014 32.2681 64.4219H33.8235C33.8462 64.7259 33.94 64.9787 34.1048 65.1804C34.2695 65.3821 34.484 65.5327 34.7482 65.6321C35.0153 65.7315 35.3136 65.7812 35.6431 65.7812C35.9869 65.7812 36.288 65.7301 36.5465 65.6278C36.8079 65.5227 37.0124 65.3778 37.1602 65.1932C37.3079 65.0057 37.3832 64.7869 37.386 64.5369C37.3832 64.3097 37.3164 64.1222 37.1857 63.9744C37.055 63.8239 36.8718 63.6989 36.636 63.5994C36.4031 63.4972 36.1303 63.4062 35.8178 63.3267L34.8249 63.071C34.1062 62.8864 33.538 62.6065 33.1204 62.2315C32.7056 61.8537 32.4982 61.3523 32.4982 60.7273C32.4982 60.2131 32.6374 59.7628 32.9158 59.3764C33.1971 58.9901 33.5792 58.6903 34.0621 58.4773C34.5451 58.2614 35.092 58.1534 35.7028 58.1534C36.3221 58.1534 36.8647 58.2614 37.3306 58.4773C37.7994 58.6903 38.1673 58.9872 38.4343 59.3679C38.7013 59.7457 38.8391 60.1804 38.8477 60.6719H37.3263ZM48.1747 62.6364C48.1747 63.5767 47.9986 64.3821 47.6463 65.0526C47.2969 65.7202 46.8196 66.2315 46.2145 66.5866C45.6122 66.9418 44.929 67.1193 44.1648 67.1193C43.4006 67.1193 42.7159 66.9418 42.1108 66.5866C41.5085 66.2287 41.0313 65.7159 40.679 65.0483C40.3295 64.3778 40.1548 63.5739 40.1548 62.6364C40.1548 61.696 40.3295 60.892 40.679 60.2244C41.0313 59.554 41.5085 59.0412 42.1108 58.6861C42.7159 58.331 43.4006 58.1534 44.1648 58.1534C44.929 58.1534 45.6122 58.331 46.2145 58.6861C46.8196 59.0412 47.2969 59.554 47.6463 60.2244C47.9986 60.892 48.1747 61.696 48.1747 62.6364ZM46.5852 62.6364C46.5852 61.9744 46.4815 61.4162 46.2741 60.9616C46.0696 60.5043 45.7855 60.1591 45.4219 59.9261C45.0582 59.6903 44.6392 59.5724 44.1648 59.5724C43.6903 59.5724 43.2713 59.6903 42.9077 59.9261C42.544 60.1591 42.2585 60.5043 42.0511 60.9616C41.8466 61.4162 41.7443 61.9744 41.7443 62.6364C41.7443 63.2983 41.8466 63.858 42.0511 64.3153C42.2585 64.7699 42.544 65.1151 42.9077 65.3509C43.2713 65.5838 43.6903 65.7003 44.1648 65.7003C44.6392 65.7003 45.0582 65.5838 45.4219 65.3509C45.7855 65.1151 46.0696 64.7699 46.2741 64.3153C46.4815 63.858 46.5852 63.2983 46.5852 62.6364ZM53.5685 62.0014V63.2713H49.6396V62.0014H53.5685ZM55.2592 67V58.2727H58.532C59.2024 58.2727 59.7649 58.3977 60.2195 58.6477C60.6768 58.8977 61.022 59.2415 61.255 59.679C61.4908 60.1136 61.6087 60.608 61.6087 61.1619C61.6087 61.7216 61.4908 62.2187 61.255 62.6534C61.0192 63.0881 60.6712 63.4304 60.2109 63.6804C59.7507 63.9276 59.1839 64.0511 58.5107 64.0511H56.3416V62.7514H58.2976C58.6896 62.7514 59.0107 62.6832 59.2607 62.5469C59.5107 62.4105 59.6953 62.223 59.8146 61.9844C59.9368 61.7457 59.9979 61.4716 59.9979 61.1619C59.9979 60.8523 59.9368 60.5795 59.8146 60.3438C59.6953 60.108 59.5092 59.9247 59.2564 59.794C59.0064 59.6605 58.6839 59.5938 58.2891 59.5938H56.8402V67H55.2592ZM62.9137 67V60.4545H64.4094V61.5455H64.4776C64.5969 61.1676 64.8015 60.8764 65.0913 60.6719C65.3839 60.4645 65.7177 60.3608 66.0927 60.3608C66.1779 60.3608 66.2731 60.3651 66.3782 60.3736C66.4862 60.3793 66.5756 60.3892 66.6467 60.4034V61.8224C66.5813 61.7997 66.4776 61.7798 66.3356 61.7628C66.1964 61.7429 66.0614 61.733 65.9308 61.733C65.6495 61.733 65.3967 61.794 65.1722 61.9162C64.9506 62.0355 64.7759 62.2017 64.6481 62.4148C64.5202 62.6278 64.4563 62.8736 64.4563 63.152V67H62.9137ZM70.2571 67.1278C69.6179 67.1278 69.0639 66.9872 68.5952 66.706C68.1264 66.4247 67.7628 66.0312 67.5043 65.5256C67.2486 65.0199 67.1207 64.429 67.1207 63.7528C67.1207 63.0767 67.2486 62.4844 67.5043 61.9759C67.7628 61.4673 68.1264 61.0724 68.5952 60.7912C69.0639 60.5099 69.6179 60.3693 70.2571 60.3693C70.8963 60.3693 71.4503 60.5099 71.919 60.7912C72.3878 61.0724 72.75 61.4673 73.0057 61.9759C73.2642 62.4844 73.3935 63.0767 73.3935 63.7528C73.3935 64.429 73.2642 65.0199 73.0057 65.5256C72.75 66.0312 72.3878 66.4247 71.919 66.706C71.4503 66.9872 70.8963 67.1278 70.2571 67.1278ZM70.2656 65.892C70.6122 65.892 70.902 65.7969 71.1349 65.6065C71.3679 65.4134 71.5412 65.1548 71.6548 64.831C71.7713 64.5071 71.8295 64.1463 71.8295 63.7486C71.8295 63.348 71.7713 62.9858 71.6548 62.6619C71.5412 62.3352 71.3679 62.0753 71.1349 61.8821C70.902 61.6889 70.6122 61.5923 70.2656 61.5923C69.9105 61.5923 69.6151 61.6889 69.3793 61.8821C69.1463 62.0753 68.9716 62.3352 68.8551 62.6619C68.7415 62.9858 68.6847 63.348 68.6847 63.7486C68.6847 64.1463 68.7415 64.5071 68.8551 64.831C68.9716 65.1548 69.1463 65.4134 69.3793 65.6065C69.6151 65.7969 69.9105 65.892 70.2656 65.892ZM77.9712 60.4545V61.6477H74.2085V60.4545H77.9712ZM75.1374 58.8864H76.68V65.0312C76.68 65.2386 76.7113 65.3977 76.7738 65.5085C76.8391 65.6165 76.9244 65.6903 77.0295 65.7301C77.1346 65.7699 77.2511 65.7898 77.3789 65.7898C77.4755 65.7898 77.5636 65.7827 77.6431 65.7685C77.7255 65.7543 77.788 65.7415 77.8306 65.7301L78.0906 66.9361C78.0082 66.9645 77.8903 66.9957 77.7369 67.0298C77.5863 67.0639 77.4016 67.0838 77.1829 67.0895C76.7965 67.1009 76.4485 67.0426 76.1388 66.9148C75.8292 66.7841 75.5835 66.5824 75.4016 66.3097C75.2227 66.0369 75.1346 65.696 75.1374 65.2869V58.8864ZM82.0888 67.1278C81.4325 67.1278 80.8658 66.9915 80.3885 66.7188C79.9141 66.4432 79.549 66.054 79.2933 65.5511C79.0376 65.0455 78.9098 64.4503 78.9098 63.7656C78.9098 63.0923 79.0376 62.5014 79.2933 61.9929C79.5518 61.4815 79.9126 61.0838 80.3757 60.7997C80.8388 60.5128 81.3828 60.3693 82.0078 60.3693C82.4112 60.3693 82.7919 60.4347 83.1499 60.5653C83.5107 60.6932 83.8288 60.892 84.1044 61.1619C84.3828 61.4318 84.6016 61.7756 84.7607 62.1932C84.9197 62.608 84.9993 63.1023 84.9993 63.6761V64.1491H79.6342V63.1094H83.5206C83.5178 62.8139 83.4538 62.5511 83.3288 62.321C83.2038 62.0881 83.0291 61.9048 82.8047 61.7713C82.5831 61.6378 82.3246 61.571 82.0291 61.571C81.7138 61.571 81.4368 61.6477 81.1982 61.8011C80.9595 61.9517 80.7734 62.1506 80.6399 62.3977C80.5092 62.642 80.4425 62.9105 80.4396 63.2031V64.1108C80.4396 64.4915 80.5092 64.8182 80.6484 65.0909C80.7876 65.3608 80.9822 65.5682 81.2322 65.7131C81.4822 65.8551 81.7749 65.9261 82.1101 65.9261C82.3345 65.9261 82.5376 65.8949 82.7195 65.8324C82.9013 65.767 83.0589 65.6719 83.1925 65.5469C83.326 65.4219 83.4268 65.267 83.495 65.0824L84.9354 65.2443C84.8445 65.625 84.6712 65.9574 84.4155 66.2415C84.1626 66.5227 83.8388 66.7415 83.4439 66.8977C83.049 67.0511 82.5973 67.1278 82.0888 67.1278ZM89.1594 67.1278C88.506 67.1278 87.945 66.9844 87.4762 66.6974C87.0103 66.4105 86.6509 66.0142 86.3981 65.5085C86.1481 65 86.0231 64.4148 86.0231 63.7528C86.0231 63.0881 86.1509 62.5014 86.4066 61.9929C86.6623 61.4815 87.0231 61.0838 87.489 60.7997C87.9577 60.5128 88.5117 60.3693 89.1509 60.3693C89.6822 60.3693 90.1523 60.4673 90.5614 60.6634C90.9734 60.8565 91.3015 61.1307 91.5458 61.4858C91.7901 61.8381 91.9293 62.25 91.9634 62.7216H90.489C90.4293 62.4062 90.2873 62.1435 90.0629 61.9332C89.8413 61.7202 89.5444 61.6136 89.1722 61.6136C88.8569 61.6136 88.5799 61.6989 88.3413 61.8693C88.1026 62.0369 87.9165 62.2784 87.783 62.5938C87.6523 62.9091 87.587 63.2869 87.587 63.7273C87.587 64.1733 87.6523 64.5568 87.783 64.8778C87.9137 65.196 88.0969 65.4418 88.3327 65.6151C88.5714 65.7855 88.8512 65.8707 89.1722 65.8707C89.3995 65.8707 89.6026 65.8281 89.7816 65.7429C89.9634 65.6548 90.1154 65.5284 90.2376 65.3636C90.3597 65.1989 90.4435 64.9986 90.489 64.7628H91.9634C91.9265 65.2259 91.7901 65.6364 91.5543 65.9943C91.3185 66.3494 90.9975 66.6278 90.5913 66.8295C90.185 67.0284 89.7077 67.1278 89.1594 67.1278ZM96.4986 60.4545V61.6477H92.7358V60.4545H96.4986ZM93.6648 58.8864H95.2074V65.0312C95.2074 65.2386 95.2386 65.3977 95.3011 65.5085C95.3665 65.6165 95.4517 65.6903 95.5568 65.7301C95.6619 65.7699 95.7784 65.7898 95.9062 65.7898C96.0028 65.7898 96.0909 65.7827 96.1705 65.7685C96.2528 65.7543 96.3153 65.7415 96.358 65.7301L96.6179 66.9361C96.5355 66.9645 96.4176 66.9957 96.2642 67.0298C96.1136 67.0639 95.929 67.0838 95.7102 67.0895C95.3239 67.1009 94.9759 67.0426 94.6662 66.9148C94.3565 66.7841 94.1108 66.5824 93.929 66.3097C93.75 66.0369 93.6619 65.696 93.6648 65.2869V58.8864ZM100.616 67.1278C99.9599 67.1278 99.3931 66.9915 98.9158 66.7188C98.4414 66.4432 98.0763 66.054 97.8207 65.5511C97.565 65.0455 97.4371 64.4503 97.4371 63.7656C97.4371 63.0923 97.565 62.5014 97.8207 61.9929C98.0792 61.4815 98.44 61.0838 98.9031 60.7997C99.3661 60.5128 99.9102 60.3693 100.535 60.3693C100.939 60.3693 101.319 60.4347 101.677 60.5653C102.038 60.6932 102.356 60.892 102.632 61.1619C102.91 61.4318 103.129 61.7756 103.288 62.1932C103.447 62.608 103.527 63.1023 103.527 63.6761V64.1491H98.1616V63.1094H102.048C102.045 62.8139 101.981 62.5511 101.856 62.321C101.731 62.0881 101.556 61.9048 101.332 61.7713C101.11 61.6378 100.852 61.571 100.556 61.571C100.241 61.571 99.9641 61.6477 99.7255 61.8011C99.4869 61.9517 99.3008 62.1506 99.1673 62.3977C99.0366 62.642 98.9698 62.9105 98.967 63.2031V64.1108C98.967 64.4915 99.0366 64.8182 99.1758 65.0909C99.315 65.3608 99.5096 65.5682 99.7596 65.7131C100.01 65.8551 100.302 65.9261 100.637 65.9261C100.862 65.9261 101.065 65.8949 101.247 65.8324C101.429 65.767 101.586 65.6719 101.72 65.5469C101.853 65.4219 101.954 65.267 102.022 65.0824L103.463 65.2443C103.372 65.625 103.199 65.9574 102.943 66.2415C102.69 66.5227 102.366 66.7415 101.971 66.8977C101.576 67.0511 101.125 67.1278 100.616 67.1278ZM107.261 67.1151C106.746 67.1151 106.286 66.983 105.88 66.7188C105.474 66.4545 105.153 66.071 104.917 65.5682C104.681 65.0653 104.563 64.4545 104.563 63.7358C104.563 63.0085 104.683 62.3949 104.921 61.8949C105.163 61.392 105.488 61.0128 105.897 60.7571C106.306 60.4986 106.762 60.3693 107.265 60.3693C107.648 60.3693 107.964 60.4347 108.211 60.5653C108.458 60.6932 108.654 60.848 108.799 61.0298C108.944 61.2088 109.056 61.3778 109.136 61.5369H109.2V58.2727H110.746V67H109.229V65.9688H109.136C109.056 66.1278 108.941 66.2969 108.79 66.4759C108.64 66.652 108.441 66.8026 108.194 66.9276C107.947 67.0526 107.636 67.1151 107.261 67.1151ZM107.691 65.8494C108.018 65.8494 108.296 65.7614 108.526 65.5852C108.756 65.4062 108.931 65.1577 109.05 64.8395C109.17 64.5213 109.229 64.1506 109.229 63.7273C109.229 63.304 109.17 62.9361 109.05 62.6236C108.934 62.3111 108.761 62.0682 108.531 61.8949C108.303 61.7216 108.023 61.6349 107.691 61.6349C107.347 61.6349 107.06 61.7244 106.83 61.9034C106.6 62.0824 106.427 62.3295 106.31 62.6449C106.194 62.9602 106.136 63.321 106.136 63.7273C106.136 64.1364 106.194 64.5014 106.31 64.8224C106.43 65.1406 106.604 65.392 106.835 65.5767C107.067 65.7585 107.353 65.8494 107.691 65.8494Z" fill="#EE8600"/>
</g>
<defs>
<clipPath id="clip0_58051_421">
<rect width="196" height="70" fill="white"/>
</clipPath>
</defs>
</svg>
