<svg width="271" height="36" viewBox="0 0 271 36" fill="none" xmlns="http://www.w3.org/2000/svg">
<path d="M5.2163 34.1201H0V1.93655H13.8486C15.8182 1.93655 17.4954 2.33615 18.8802 3.13536C20.2959 3.93457 21.373 5.05654 22.1116 6.50126C22.8502 7.94599 23.2195 9.65199 23.2195 11.6193C23.2195 13.5558 22.8502 15.2465 22.1116 16.6912C21.373 18.1359 20.2959 19.2732 18.8802 20.1032C17.4954 20.9024 15.8182 21.302 13.8486 21.302H5.2163V34.1201ZM5.2163 6.50126V16.7373H13.5255C14.3871 16.7373 15.1257 16.5836 15.7412 16.2762C16.3875 15.9688 16.8799 15.5231 17.2184 14.9391C17.5569 14.3243 17.7262 13.5866 17.7262 12.7259V10.5127C17.7262 9.62125 17.5569 8.88352 17.2184 8.29948C16.8799 7.71545 16.3875 7.26973 15.7412 6.96234C15.1257 6.65496 14.3871 6.50126 13.5255 6.50126H5.2163Z" fill="#020202"/>
<path d="M46.1266 34.1201H43.3107C42.3875 34.1201 41.5874 33.9203 40.9103 33.5207C40.2641 33.0904 39.7717 32.4909 39.4331 31.7225C39.0946 30.954 38.9254 30.0472 38.9254 29.0021V28.5871L40.3564 30.1087H38.7407C38.2791 31.5841 37.4328 32.7215 36.2018 33.5207C34.9708 34.2892 33.4782 34.6734 31.7241 34.6734C29.2621 34.6734 27.3541 34.0279 26 32.7369C24.6459 31.4458 23.9689 29.7091 23.9689 27.5266C23.9689 25.9282 24.3536 24.6064 25.1229 23.5613C25.9231 22.4855 27.0771 21.6862 28.5851 21.1637C30.093 20.6104 31.9703 20.3337 34.2168 20.3337H38.5561V18.305C38.5561 16.8602 38.156 15.7383 37.3558 14.9391C36.5557 14.1091 35.3093 13.6941 33.6167 13.6941C32.2319 13.6941 31.0778 14.0169 30.1546 14.6624C29.2621 15.2772 28.5081 16.0457 27.8926 16.9678L24.8921 14.2474C25.6923 12.8949 26.8155 11.7883 28.2619 10.9277C29.7391 10.0362 31.6318 9.59052 33.9399 9.59052C37.0173 9.59052 39.387 10.3282 41.0488 11.8037C42.7414 13.2484 43.5877 15.3079 43.5877 17.9822V30.0165H46.1266V34.1201ZM38.5561 23.5613H34.3092C32.555 23.5613 31.2471 23.838 30.3854 24.3913C29.5237 24.9446 29.0929 25.7438 29.0929 26.7889V27.6188C29.0929 28.664 29.4622 29.4632 30.2007 30.0165C30.9393 30.5698 31.9241 30.8464 33.1551 30.8464C34.2014 30.8464 35.1247 30.6927 35.9248 30.3853C36.725 30.0779 37.3558 29.6322 37.8175 29.0482C38.3099 28.4642 38.5561 27.7879 38.5561 27.0194V23.5613Z" fill="#020202"/>
<path d="M56.3666 34.6734C54.1201 34.6734 52.2121 34.2738 50.6426 33.4746C49.1038 32.6754 47.7651 31.5688 46.6265 30.1548L49.8578 27.2039C50.7503 28.249 51.7351 29.0789 52.8122 29.6937C53.9201 30.3085 55.1972 30.6159 56.6436 30.6159C58.1208 30.6159 59.2133 30.3392 59.9211 29.7859C60.6597 29.2019 61.029 28.4027 61.029 27.3883C61.029 26.6198 60.7674 25.9743 60.2442 25.4518C59.7519 24.9292 58.8748 24.5757 57.613 24.3913L55.3972 24.1146C53.797 23.8687 52.3967 23.4691 51.1965 22.9158C49.9963 22.3625 49.0731 21.6094 48.4268 20.6565C47.8113 19.6729 47.5035 18.4433 47.5035 16.9678C47.5035 14.6317 48.3191 12.8181 49.9501 11.5271C51.612 10.236 53.7662 9.59052 56.4128 9.59052C57.8592 9.59052 59.121 9.74421 60.1981 10.0516C61.2752 10.359 62.2292 10.8047 63.0601 11.3887C63.891 11.942 64.6604 12.6183 65.3682 13.4175L62.2754 16.3684C61.6599 15.6307 60.8444 15.0005 59.8288 14.478C58.844 13.9247 57.7053 13.648 56.4128 13.648C55.0587 13.648 54.0432 13.9247 53.3661 14.478C52.6891 15.0005 52.3506 15.7229 52.3506 16.6451C52.3506 17.5672 52.6429 18.2589 53.2276 18.7199C53.8431 19.181 54.7817 19.5192 56.0435 19.7343L58.2593 20.011C60.9059 20.4106 62.8293 21.1944 64.0295 22.3625C65.2605 23.4998 65.876 25.0368 65.876 26.9733C65.876 28.5103 65.4759 29.8628 64.6758 31.0309C63.9064 32.1682 62.8139 33.0596 61.3983 33.7051C59.9827 34.3506 58.3054 34.6734 56.3666 34.6734Z" fill="#020202"/>
<path d="M78.5309 34.6734C75.0533 34.6734 72.3606 33.5514 70.4525 31.3075C68.5445 29.0328 67.5905 25.9743 67.5905 22.132C67.5905 18.2896 68.5445 15.2465 70.4525 13.0025C72.3606 10.7279 75.0533 9.59052 78.5309 9.59052C80.9313 9.59052 82.9009 10.1284 84.4396 11.2043C85.9783 12.2802 87.0862 13.7095 87.7633 15.4924L83.6087 17.4289C83.2702 16.3223 82.6701 15.4463 81.8084 14.8007C80.9467 14.1245 79.8542 13.7864 78.5309 13.7864C76.6844 13.7864 75.2842 14.3704 74.3301 15.5385C73.3761 16.6758 72.8991 18.1666 72.8991 20.011V24.2529C72.8991 26.0973 73.3761 27.6035 74.3301 28.7715C75.2842 29.9396 76.6844 30.5237 78.5309 30.5237C79.9773 30.5237 81.1467 30.1702 82.0392 29.4632C82.9317 28.7254 83.6395 27.7572 84.1626 26.5583L87.9479 28.5871C87.1786 30.5544 85.9937 32.0606 84.3934 33.1057C82.7932 34.1508 80.839 34.6734 78.5309 34.6734Z" fill="#020202"/>
<path d="M110.835 34.1201H108.019C107.095 34.1201 106.295 33.9203 105.618 33.5207C104.972 33.0904 104.48 32.4909 104.141 31.7225C103.803 30.954 103.633 30.0472 103.633 29.0021V28.5871L105.064 30.1087H103.449C102.987 31.5841 102.141 32.7215 100.91 33.5207C99.6787 34.2892 98.1861 34.6734 96.432 34.6734C93.97 34.6734 92.062 34.0279 90.7079 32.7369C89.3538 31.4458 88.6768 29.7091 88.6768 27.5266C88.6768 25.9282 89.0615 24.6064 89.8308 23.5613C90.631 22.4855 91.785 21.6862 93.293 21.1637C94.8009 20.6104 96.6782 20.3337 98.9247 20.3337H103.264V18.305C103.264 16.8602 102.864 15.7383 102.064 14.9391C101.264 14.1091 100.017 13.6941 98.3246 13.6941C96.9398 13.6941 95.7857 14.0169 94.8625 14.6624C93.97 15.2772 93.216 16.0457 92.6005 16.9678L89.6 14.2474C90.4001 12.8949 91.5234 11.7883 92.9698 10.9277C94.447 10.0362 96.3397 9.59052 98.6478 9.59052C101.725 9.59052 104.095 10.3282 105.757 11.8037C107.449 13.2484 108.296 15.3079 108.296 17.9822V30.0165H110.835V34.1201ZM103.264 23.5613H99.017C97.2629 23.5613 95.955 23.838 95.0933 24.3913C94.2316 24.9446 93.8007 25.7438 93.8007 26.7889V27.6188C93.8007 28.664 94.17 29.4632 94.9086 30.0165C95.6472 30.5698 96.632 30.8464 97.863 30.8464C98.9093 30.8464 99.8326 30.6927 100.633 30.3853C101.433 30.0779 102.064 29.6322 102.525 29.0482C103.018 28.4642 103.264 27.7879 103.264 27.0194V23.5613Z" fill="#020202"/>
<path d="M121.813 34.1201H118.628C116.905 34.1201 115.612 33.6744 114.75 32.783C113.889 31.8608 113.458 30.6312 113.458 29.0943V0H118.489V30.0165H121.813V34.1201Z" fill="#020202"/>
<path d="M130.938 9.48165H133.615L142.825 31.448H143.048L152.257 9.48165H154.935V34.6987H152.753V14.3453H152.555L143.99 34.6987H141.883L133.318 14.3453H133.119V34.6987H130.938V9.48165Z" fill="#020202"/>
<path d="M160.636 34.6987V9.48165H175.362V11.5502H162.954V21.0436H174.581V23.1121H162.954V32.6301H175.61V34.6987H160.636Z" fill="#020202"/>
<path d="M178.777 11.5502V9.48165H197.184V11.5502H189.139V34.6987H186.821V11.5502H178.777Z" fill="#020202"/>
<path d="M201.355 34.6987V9.48165H209.548C211.349 9.48165 212.853 9.80589 214.06 10.4544C215.274 11.0947 216.187 11.9853 216.799 13.1263C217.419 14.2591 217.729 15.5602 217.729 17.0295C217.729 18.4989 217.419 19.7958 216.799 20.9204C216.187 22.045 215.278 22.9233 214.072 23.5554C212.866 24.1875 211.37 24.5035 209.585 24.5035H202.607V22.398H209.523C210.845 22.398 211.944 22.1805 212.82 21.7454C213.704 21.3103 214.361 20.6906 214.791 19.8861C215.229 19.0817 215.448 18.1295 215.448 17.0295C215.448 15.9296 215.229 14.9691 214.791 14.1483C214.353 13.3192 213.692 12.6789 212.808 12.2274C211.932 11.776 210.824 11.5502 209.486 11.5502H203.673V34.6987H201.355ZM212.547 23.3215L218.794 34.6987H216.117L209.932 23.3215H212.547Z" fill="#020202"/>
<path d="M224.645 9.48165V34.6987H222.327V9.48165H224.645Z" fill="#020202"/>
<path d="M250.229 17.362H247.899C247.725 16.5001 247.411 15.7038 246.957 14.9732C246.51 14.2345 245.948 13.5901 245.271 13.0401C244.593 12.4901 243.825 12.0633 242.965 11.7596C242.106 11.4558 241.176 11.304 240.176 11.304C238.573 11.304 237.111 11.7185 235.789 12.5476C234.475 13.3767 233.421 14.5956 232.628 16.2045C231.843 17.8052 231.45 19.7671 231.45 22.0902C231.45 24.4296 231.843 26.3997 232.628 28.0004C233.421 29.6011 234.475 30.816 235.789 31.645C237.111 32.4659 238.573 32.8763 240.176 32.8763C241.176 32.8763 242.106 32.7245 242.965 32.4208C243.825 32.117 244.593 31.6943 245.271 31.1525C245.948 30.6025 246.51 29.9582 246.957 29.2194C247.411 28.4806 247.725 27.6803 247.899 26.8183H250.229C250.022 27.9758 249.634 29.0552 249.064 30.0567C248.502 31.0499 247.783 31.92 246.907 32.667C246.039 33.414 245.039 33.9968 243.907 34.4155C242.775 34.8341 241.532 35.0434 240.176 35.0434C238.044 35.0434 236.152 34.514 234.499 33.4551C232.847 32.3879 231.549 30.8857 230.607 28.9485C229.674 27.0113 229.207 24.7251 229.207 22.0902C229.207 19.4552 229.674 17.1691 230.607 15.2318C231.549 13.2946 232.847 11.7965 234.499 10.7376C236.152 9.67045 238.044 9.13689 240.176 9.13689C241.532 9.13689 242.775 9.34621 243.907 9.76485C245.039 10.1753 246.039 10.7581 246.907 11.5133C247.783 12.2603 248.502 13.1304 249.064 14.1237C249.634 15.1169 250.022 16.1963 250.229 17.362Z" fill="#020202"/>
<path d="M268.409 15.7859C268.269 14.3822 267.645 13.2658 266.538 12.4368C265.431 11.6077 264.038 11.1932 262.361 11.1932C261.179 11.1932 260.138 11.3943 259.237 11.7965C258.345 12.1987 257.642 12.7569 257.13 13.4711C256.626 14.177 256.374 14.9815 256.374 15.8844C256.374 16.5493 256.518 17.1321 256.808 17.6329C257.097 18.1336 257.485 18.5645 257.973 18.9257C258.469 19.2787 259.014 19.5824 259.609 19.8369C260.212 20.0913 260.82 20.3048 261.431 20.4772L264.108 21.2406C264.918 21.4622 265.728 21.7454 266.538 22.0902C267.348 22.4349 268.087 22.87 268.757 23.3953C269.434 23.9125 269.975 24.5487 270.38 25.3039C270.793 26.0508 271 26.9497 271 28.0004C271 29.3466 270.649 30.5574 269.946 31.6327C269.244 32.7081 268.236 33.5618 266.922 34.1938C265.608 34.8177 264.034 35.1296 262.2 35.1296C260.473 35.1296 258.973 34.8464 257.7 34.28C256.428 33.7054 255.428 32.9133 254.701 31.9036C253.973 30.894 253.564 29.7242 253.473 28.3944H255.853C255.936 29.3877 256.266 30.2291 256.845 30.9186C257.423 31.6081 258.175 32.1335 259.101 32.4946C260.026 32.8476 261.059 33.0241 262.2 33.0241C263.464 33.0241 264.588 32.8148 265.571 32.3961C266.563 31.9693 267.339 31.3783 267.901 30.6231C268.471 29.8597 268.757 28.9731 268.757 27.9635C268.757 27.1098 268.533 26.3956 268.087 25.821C267.641 25.2382 267.017 24.7498 266.216 24.3558C265.422 23.9617 264.501 23.6129 263.451 23.3091L260.415 22.4226C258.423 21.8316 256.878 21.0148 255.779 19.9723C254.68 18.9298 254.13 17.6 254.13 15.9829C254.13 14.6285 254.494 13.4382 255.221 12.4121C255.957 11.3779 256.948 10.5734 258.196 9.9988C259.452 9.41598 260.861 9.12457 262.423 9.12457C264.001 9.12457 265.397 9.41188 266.612 9.98648C267.827 10.5611 268.79 11.3532 269.5 12.3629C270.219 13.3643 270.603 14.5054 270.653 15.7859H268.409Z" fill="#020202"/>
</svg>
